<?xml version="1.0" encoding="utf-8"?>
<svg width="1719px" height="439px" viewBox="0 0 1719 439" version="1.1" xmlns:xlink="http://www.w3.org/1999/xlink" xmlns="http://www.w3.org/2000/svg">
  <defs>
    <path d="M1719 0L1719 0L1719 439L0 439L0 0L1719 0Z" id="path_1" />
    <path d="M136.751 301.656L136.751 133.989L155.699 133.989L155.699 203.231L159.032 203.231C160.787 199.878 163.263 196.603 166.46 193.406C169.657 190.209 173.848 187.578 179.033 185.511C184.218 183.406 190.807 182.353 198.8 182.353C207.416 182.353 215.233 184.244 222.251 188.026C229.269 191.769 234.844 197.227 238.977 204.401C243.148 211.574 245.234 220.366 245.234 230.776L245.234 301.656L226.345 301.656L226.345 232.179C226.345 220.522 223.421 212.062 217.572 206.799C211.763 201.535 203.907 198.904 194.004 198.904C182.815 198.904 173.633 202.627 166.46 210.073C159.286 217.481 155.699 228.359 155.699 242.706L155.699 301.656L136.751 301.656L136.751 301.656ZM319.497 304.989C311.192 304.989 303.726 303.566 297.098 300.72C290.47 297.835 285.246 293.683 281.425 288.263C277.604 282.805 275.694 276.177 275.694 268.38C275.694 260.387 277.604 253.798 281.425 248.613C285.246 243.428 290.47 239.509 297.098 236.858C303.726 234.207 311.27 232.881 319.731 232.881L359.264 232.881L359.264 224.285C359.264 215.98 356.866 209.43 352.071 204.635C347.315 199.839 340.063 197.442 330.316 197.442C320.881 197.442 313.493 199.761 308.151 204.401C302.81 209.04 299.262 215.103 297.508 222.589L279.729 216.857C281.484 210.307 284.486 204.362 288.735 199.021C292.985 193.679 298.541 189.371 305.403 186.096C312.265 182.821 320.647 181.184 330.55 181.184C345.404 181.184 357.022 185.063 365.405 192.822C373.787 200.541 377.978 211.419 377.978 225.454L377.978 278.438C377.978 283.234 380.201 285.632 384.645 285.632L395.464 285.632L395.464 301.656L378.914 301.656C373.651 301.656 369.421 300.174 366.224 297.211C363.027 294.248 361.428 290.291 361.428 285.339L361.428 284.17L358.562 284.17C356.808 287.211 354.449 290.369 351.486 293.644C348.523 296.919 344.488 299.628 339.38 301.773C334.273 303.917 327.645 304.989 319.497 304.989L319.497 304.989ZM321.66 288.731C333.006 288.731 342.109 285.417 348.971 278.789C355.833 272.161 359.264 262.863 359.264 250.894L359.264 248.262L320.491 248.262C312.966 248.262 306.767 249.899 301.894 253.174C297.02 256.449 294.583 261.342 294.583 267.853C294.583 274.403 297.059 279.53 302.011 283.234C306.962 286.899 313.512 288.731 321.66 288.731L321.66 288.731ZM421.325 301.656L421.325 184.517L439.746 184.517L439.746 199.137L443.138 199.137C445.361 194.966 449.026 191.126 454.133 187.617C459.24 184.108 466.434 182.353 475.713 182.353C484.797 182.353 492.126 184.361 497.702 188.377C503.316 192.354 507.488 197.208 510.217 202.939L513.55 202.939C516.084 197.208 520.1 192.354 525.597 188.377C531.134 184.361 538.931 182.353 548.99 182.353C560.647 182.353 570.18 185.921 577.587 193.055C585.034 200.151 588.757 209.918 588.757 222.355L588.757 301.656L569.809 301.656L569.809 224.051C569.809 216.214 567.529 210.035 562.967 205.512C558.445 200.95 552.109 198.67 543.961 198.67C535.344 198.67 528.268 201.457 522.732 207.033C517.234 212.608 514.486 220.678 514.486 231.244L514.486 301.656L495.596 301.656L495.596 224.051C495.596 216.214 493.316 210.035 488.754 205.512C484.192 200.95 477.837 198.67 469.689 198.67C461.073 198.67 454.016 201.457 448.519 207.033C443.021 212.608 440.273 220.678 440.273 231.244L440.273 301.656L421.325 301.656L421.325 301.656ZM627.33 301.656L627.33 133.989L646.278 133.989L646.278 203.231L649.611 203.231C651.366 199.878 653.842 196.603 657.039 193.406C660.236 190.209 664.427 187.578 669.612 185.511C674.797 183.406 681.386 182.353 689.379 182.353C697.995 182.353 705.812 184.244 712.83 188.026C719.848 191.769 725.423 197.227 729.556 204.401C733.727 211.574 735.813 220.366 735.813 230.776L735.813 301.656L716.924 301.656L716.924 232.179C716.924 220.522 714 212.062 708.151 206.799C702.342 201.535 694.486 198.904 684.583 198.904C673.394 198.904 664.212 202.627 657.039 210.073C649.865 217.481 646.278 228.359 646.278 242.706L646.278 301.656L627.33 301.656L627.33 301.656ZM774.168 301.656L774.168 184.517L793.116 184.517L793.116 301.656L774.168 301.656L774.168 301.656ZM783.759 166.329C779.626 166.329 776.156 164.984 773.349 162.294C770.542 159.565 769.139 156.115 769.139 151.943C769.139 147.615 770.542 144.106 773.349 141.416C776.156 138.687 779.626 137.323 783.759 137.323C787.931 137.323 791.362 138.687 794.052 141.416C796.781 144.106 798.145 147.615 798.145 151.943C798.145 156.115 796.781 159.565 794.052 162.294C791.362 164.984 787.931 166.329 783.759 166.329L783.759 166.329ZM832.855 301.656L832.855 184.517L851.276 184.517L851.276 199.137L854.668 199.137C856.891 194.966 860.555 191.126 865.663 187.617C870.77 184.108 877.964 182.353 887.243 182.353C896.327 182.353 903.656 184.361 909.232 188.377C914.846 192.354 919.018 197.208 921.747 202.939L925.08 202.939C927.614 197.208 931.63 192.354 937.127 188.377C942.664 184.361 950.461 182.353 960.52 182.353C972.177 182.353 981.71 185.921 989.117 193.055C996.564 200.151 1000.29 209.918 1000.29 222.355L1000.29 301.656L981.339 301.656L981.339 224.051C981.339 216.214 979.059 210.035 974.497 205.512C969.974 200.95 963.639 198.67 955.49 198.67C946.874 198.67 939.798 201.457 934.262 207.033C928.764 212.608 926.016 220.678 926.016 231.244L926.016 301.656L907.126 301.656L907.126 224.051C907.126 216.214 904.846 210.035 900.284 205.512C895.722 200.95 889.367 198.67 881.219 198.67C872.603 198.67 865.546 201.457 860.049 207.033C854.551 212.608 851.803 220.678 851.803 231.244L851.803 301.656L832.855 301.656L832.855 301.656ZM1088.45 304.989C1078.24 304.989 1068.94 302.552 1060.56 297.679C1052.17 292.805 1045.51 285.905 1040.56 276.976C1035.6 268.048 1033.13 257.268 1033.13 244.636L1033.13 241.537C1033.13 229.06 1035.6 218.319 1040.56 209.313C1045.51 200.307 1052.17 193.367 1060.56 188.494C1068.94 183.62 1078.24 181.184 1088.45 181.184C1100.58 181.184 1109.99 183.464 1116.7 188.026C1123.4 192.549 1128.2 197.519 1131.09 202.939L1134.42 202.939L1134.42 133.989L1153.37 133.989L1153.37 301.656L1134.89 301.656L1134.89 282.24L1131.55 282.24C1128.36 288.166 1123.4 293.449 1116.7 298.088C1109.99 302.689 1100.58 304.989 1088.45 304.989L1088.45 304.989ZM1093.48 288.263C1105.45 288.263 1115.26 284.384 1122.9 276.626C1130.58 268.867 1134.42 258.048 1134.42 244.168L1134.42 242.004C1134.42 228.125 1130.58 217.306 1122.9 209.547C1115.26 201.789 1105.45 197.909 1093.48 197.909C1081.36 197.909 1071.45 201.789 1063.77 209.547C1056.09 217.306 1052.25 228.125 1052.25 242.004L1052.25 244.168C1052.25 258.048 1056.13 268.867 1063.89 276.626C1071.65 284.384 1081.51 288.263 1093.48 288.263L1093.48 288.263ZM1246.75 304.989C1234.94 304.989 1224.57 302.474 1215.64 297.445C1206.71 292.416 1199.77 285.359 1194.82 276.275C1189.87 267.152 1187.39 256.605 1187.39 244.636L1187.39 241.771C1187.39 229.645 1189.87 219.041 1194.82 209.957C1199.77 200.833 1206.63 193.757 1215.4 188.728C1224.18 183.698 1234.24 181.184 1245.58 181.184C1256.61 181.184 1266.36 183.581 1274.82 188.377C1283.28 193.133 1289.91 199.878 1294.71 208.612C1299.5 217.306 1301.9 227.56 1301.9 239.373L1301.9 247.97L1206.52 247.97C1206.87 260.602 1210.82 270.485 1218.39 277.62C1225.99 284.716 1235.62 288.263 1247.28 288.263C1257.34 288.263 1265.08 285.983 1270.49 281.421C1275.91 276.859 1280.07 271.304 1282.95 264.754L1299.21 272.649C1296.83 277.6 1293.56 282.552 1289.38 287.503C1285.25 292.455 1279.75 296.607 1272.89 299.96C1266.03 303.313 1257.32 304.989 1246.75 304.989L1246.75 304.989ZM1206.75 232.414L1282.72 232.414C1282.05 221.575 1278.33 213.115 1271.55 207.033C1264.76 200.95 1256.11 197.909 1245.58 197.909C1234.9 197.909 1226.11 200.95 1219.21 207.033C1212.34 213.115 1208.19 221.575 1206.75 232.414L1206.75 232.414ZM1359.85 301.656L1317.92 184.517L1338.04 184.517L1373.24 287.503L1376.63 287.503L1411.84 184.517L1431.96 184.517L1390.03 301.656L1359.85 301.656L1359.85 301.656Z" id="path_2" />
    <clipPath id="clip_1">
      <use xlink:href="#path_1" clip-rule="evenodd" fill-rule="evenodd" />
    </clipPath>
  </defs>
  <g id="hamhimdev banner" clip-path="url(#clip_1)">
    <path d="M1719 0L1719 0L1719 439L0 439L0 0L1719 0Z" id="hamhimdev-banner" fill="#FFFFFF" fill-opacity="0" stroke="none" />
    <g id="Path">
      <use xlink:href="#path_2" fill="none" stroke="#FFFFFF" stroke-width="26" />
      <use stroke="none" fill="#000000" xlink:href="#path_2" />
      <use xlink:href="#path_2" fill="none" stroke="#000000" stroke-width="4" />
    </g>
    <path d="M78.3871 223.014L29.4593 277.378Q29.3081 277.546 29.1448 277.702Q28.9815 277.858 28.8068 278.002Q28.6322 278.145 28.4473 278.275Q28.2624 278.405 28.0683 278.52Q27.8741 278.636 27.6718 278.736Q27.4696 278.837 27.2603 278.922Q27.051 279.007 26.8359 279.076Q26.6208 279.145 26.4012 279.198Q26.1815 279.251 25.9585 279.287Q25.7354 279.323 25.5103 279.342Q25.2852 279.362 25.0593 279.364Q24.8334 279.366 24.6079 279.351Q24.3825 279.337 24.1588 279.305Q23.9351 279.273 23.7144 279.225Q23.4937 279.177 23.2773 279.112Q23.0609 279.047 22.8499 278.966Q22.639 278.885 22.4347 278.788Q22.2305 278.692 22.0341 278.58Q21.8377 278.469 21.6502 278.342Q21.4628 278.216 21.2853 278.076Q21.1079 277.937 20.9415 277.784Q20.7751 277.631 20.6206 277.466Q20.4662 277.301 20.3245 277.125Q20.1829 276.949 20.0549 276.763Q19.927 276.577 19.8134 276.381Q19.6997 276.186 19.6011 275.983Q19.5025 275.78 19.4195 275.57Q19.3364 275.359 19.2694 275.144Q19.2024 274.928 19.1518 274.708Q19.1013 274.488 19.0674 274.264Q19.0335 274.041 19.0165 273.815Q18.9995 273.59 18.9995 273.364L18.9995 164.636Q18.9995 164.41 19.0165 164.185Q19.0335 163.959 19.0674 163.736Q19.1013 163.512 19.1518 163.292Q19.2024 163.072 19.2694 162.856Q19.3364 162.641 19.4195 162.43Q19.5025 162.22 19.6011 162.017Q19.6997 161.814 19.8134 161.619Q19.927 161.423 20.0549 161.237Q20.1829 161.051 20.3245 160.875Q20.4662 160.699 20.6206 160.534Q20.7751 160.369 20.9415 160.216Q21.1079 160.063 21.2853 159.924Q21.4628 159.784 21.6502 159.658Q21.8377 159.531 22.0341 159.42Q22.2305 159.308 22.4347 159.212Q22.639 159.115 22.8499 159.034Q23.0609 158.953 23.2773 158.888Q23.4937 158.823 23.7144 158.775Q23.9351 158.727 24.1588 158.695Q24.3825 158.663 24.6079 158.649Q24.8334 158.634 25.0593 158.636Q25.2852 158.638 25.5103 158.658Q25.7354 158.677 25.9585 158.713Q26.1815 158.749 26.4012 158.802Q26.6208 158.855 26.8359 158.924Q27.051 158.993 27.2603 159.078Q27.4696 159.163 27.6719 159.264Q27.8741 159.364 28.0683 159.48Q28.2624 159.595 28.4473 159.725Q28.6322 159.855 28.8068 159.998Q28.9815 160.142 29.1448 160.298Q29.3081 160.454 29.4593 160.622L78.3871 214.986Q78.479 215.088 78.5662 215.195Q78.6534 215.301 78.7356 215.411Q78.8178 215.521 78.8948 215.635Q78.9719 215.749 79.0437 215.866Q79.1155 215.983 79.1818 216.103Q79.2482 216.224 79.3089 216.347Q79.3697 216.47 79.4248 216.596Q79.4798 216.722 79.5291 216.85Q79.5783 216.979 79.6216 217.109Q79.6649 217.24 79.7022 217.372Q79.7395 217.504 79.7707 217.638Q79.8019 217.772 79.8269 217.907Q79.852 218.042 79.8708 218.178Q79.8896 218.314 79.9022 218.451Q79.9148 218.588 79.921 218.725Q79.9273 218.863 79.9273 219Q79.9273 219.137 79.921 219.275Q79.9148 219.412 79.9022 219.549Q79.8896 219.686 79.8708 219.822Q79.852 219.958 79.8269 220.093Q79.8019 220.228 79.7707 220.362Q79.7395 220.496 79.7022 220.628Q79.6649 220.76 79.6216 220.891Q79.5783 221.021 79.5291 221.15Q79.4798 221.278 79.4248 221.404Q79.3697 221.53 79.3089 221.653Q79.2482 221.776 79.1818 221.897Q79.1155 222.017 79.0437 222.134Q78.9719 222.251 78.8948 222.365Q78.8178 222.479 78.7356 222.589Q78.6534 222.699 78.5662 222.805Q78.479 222.912 78.3871 223.014Z" id="Triangle" fill="#000000" fill-rule="evenodd" stroke="#FFFFFF" stroke-width="13" />
  </g>
</svg>